<svg width="23" height="21" viewBox="0 0 23 21" fill="none" xmlns="http://www.w3.org/2000/svg">
<path fill-rule="evenodd" clip-rule="evenodd" d="M23 19.5C23 20.328 22.3167 21 21.4749 21L7.52512 21C6.68325 21 6 20.328 6 19.5C6 18.672 6.68325 18 7.52512 18L21.4749 18C22.3167 18 23 18.672 23 19.5Z" fill="white"/>
<path fill-rule="evenodd" clip-rule="evenodd" d="M23 10.5C23 11.328 22.3363 12 21.5184 12L1.48158 12C0.663746 12 -2.93741e-08 11.328 -6.55671e-08 10.5C-1.0176e-07 9.672 0.663746 9 1.48158 9L21.5184 9C22.3363 9 23 9.672 23 10.5Z" fill="white"/>
<path fill-rule="evenodd" clip-rule="evenodd" d="M23 1.5C23 2.328 22.3612 3 21.5741 3L15.4259 3C14.6388 3 14 2.328 14 1.5C14 0.672 14.6388 -5.04759e-07 15.4259 -5.39163e-07L21.5741 -8.07914e-07C22.3612 -8.42318e-07 23 0.671999 23 1.5Z" fill="white"/>
</svg>
